<svg width="52" height="58" viewBox="0 0 52 58" fill="none" xmlns="http://www.w3.org/2000/svg">
<path d="M15.23 57.629H20.09L13.529 38.324H8.561L2 57.629H6.86L8.021 53.579H14.042L15.23 57.629ZM11.072 42.725C11.072 42.725 11.504 44.831 11.855 46.046L12.935 49.799H9.128L10.235 46.046C10.586 44.831 11.018 42.725 11.018 42.725H11.072Z" fill="#0078D4"/>
<path d="M24.9236 57.629H29.6486V42.374H35.5076V38.324H19.0646V42.374H24.9236V57.629Z" fill="#0078D4"/>
<path d="M36.4577 55.199C36.4577 55.199 38.9687 57.953 43.5047 57.953C47.8517 57.953 50.3087 55.172 50.3087 51.959C50.3087 45.857 41.6147 46.289 41.6147 43.859C41.6147 42.779 42.6947 42.347 43.6667 42.347C45.9887 42.347 47.9327 44.048 47.9327 44.048L49.9307 40.187C49.9307 40.187 47.8787 38 43.7207 38C39.8867 38 36.8897 40.349 36.8897 43.913C36.8897 49.853 45.5837 49.772 45.5837 52.067C45.5837 53.228 44.5307 53.606 43.5587 53.606C41.1287 53.606 38.9417 51.608 38.9417 51.608L36.4577 55.199Z" fill="#0078D4"/>
<g clip-path="url(#clip0_102_275)">
<path d="M10.6956 11.5439L18.2113 13.5584C18.3028 13.2171 18.4125 12.8893 18.5388 12.5757L11.7872 8.67731C11.3295 9.59714 10.9651 10.5531 10.6956 11.5439Z" fill="#005A9E"/>
<path d="M13.3218 6.17921C13.1317 6.43571 12.9502 6.69489 12.7771 6.95763L19.5161 10.848C19.9323 10.3015 20.4271 9.81483 20.9989 9.38837L17.0943 2.62479C15.6151 3.6035 14.3603 4.78697 13.3218 6.17921Z" fill="#005A9E"/>
<path d="M22.7159 8.39403C23.3726 8.10942 24.0417 7.92341 24.7229 7.83508V0C22.6976 0.119105 20.7264 0.661994 18.8109 1.63L22.7155 8.39403H22.7159Z" fill="#106EBE"/>
<path d="M26.7075 0.0182953V7.84802C27.0447 7.89486 27.3855 7.96445 27.729 8.05679C28.0725 8.14869 28.4017 8.25887 28.718 8.38645L32.6329 1.60726C31.7318 1.17455 30.7691 0.819914 29.7453 0.545571C28.7193 0.269889 27.7072 0.0945762 26.7075 0.0187414V0.0182953Z" fill="#106EBE"/>
<path d="M34.3602 2.58284L30.4449 9.36471C30.9918 9.7818 31.4789 10.2778 31.9058 10.8524L38.6654 6.95004C37.4917 5.15587 36.0566 3.69984 34.3602 2.58284Z" fill="#0078D4"/>
<path d="M32.8952 12.5721C33.5768 14.1615 33.6843 15.8281 33.2231 17.5727C32.6744 19.6483 31.4704 21.2235 29.6102 22.2972C27.7545 23.3687 25.7886 23.6239 23.7071 23.0663C21.9585 22.5979 20.5676 21.6722 19.5318 20.2876L12.766 24.194C14.888 27.4277 17.8656 29.5559 21.6935 30.5819C25.8488 31.6954 29.7855 31.1815 33.501 29.0367C37.2209 26.8888 39.6343 23.7363 40.7388 19.5863C41.7603 15.7607 41.3972 12.1224 39.6566 8.66835L32.8952 12.5721Z" fill="#0078D4"/>
<path fill-rule="evenodd" clip-rule="evenodd" d="M22.2627 10.7275C19.5576 12.5926 18.876 16.2956 20.7411 19.0011C22.6057 21.7062 26.3091 22.3878 29.0142 20.5231C31.7197 18.6585 32.4009 14.9551 30.5363 12.2496C28.6716 9.54404 24.9682 8.86286 22.2627 10.7275Z" fill="#0078D4"/>
</g>
<defs>
<clipPath id="clip0_102_275">
<rect width="32" height="32" fill="white" transform="translate(10)"/>
</clipPath>
</defs>
</svg>
