<svg width="68" height="24" viewBox="0 0 68 24" fill="none" xmlns="http://www.w3.org/2000/svg">
<rect width="67.5" height="24" fill="white"/>
<g clip-path="url(#clip0_127_2438)">
<path d="M0.521729 8.65791L6.15849 10.1688C6.22708 9.91287 6.30938 9.66696 6.40406 9.43176L1.34041 6.508C0.997146 7.19787 0.723806 7.91484 0.521729 8.65791Z" fill="#0078D4"/>
<path d="M2.49133 4.63442C2.3488 4.82679 2.21264 5.02117 2.08282 5.21823L7.13711 8.13598C7.44926 7.72614 7.82029 7.36113 8.2492 7.04128L5.32075 1.9686C4.21133 2.70263 3.2702 3.59024 2.49133 4.63442Z" fill="#0078D4"/>
<path d="M9.53694 6.29552C10.0294 6.08207 10.5313 5.94255 11.0422 5.87631V0C9.52322 0.089329 8.04478 0.496495 6.60815 1.2225L9.53661 6.29552H9.53694Z" fill="#0078D4"/>
<path d="M12.5306 0.0137329V5.88603C12.7836 5.92116 13.0392 5.97335 13.2968 6.0426C13.5544 6.11153 13.8013 6.19416 14.0385 6.28985L16.9747 1.20546C16.2989 0.880927 15.5769 0.614947 14.809 0.409189C14.0395 0.202428 13.2804 0.0709436 12.5306 0.0140675V0.0137329Z" fill="#0078D4"/>
<path d="M18.2701 1.93713L15.3336 7.02353C15.7438 7.33635 16.1091 7.70839 16.4293 8.13931L21.499 5.21253C20.6187 3.86691 19.5425 2.77489 18.2701 1.93713Z" fill="#0078D4"/>
<path d="M17.1714 9.42903C17.6826 10.6211 17.7632 11.871 17.4173 13.1795C17.0058 14.7362 16.1028 15.9176 14.7077 16.7229C13.3159 17.5265 11.8414 17.7179 10.2804 17.2997C8.96885 16.9484 7.92568 16.2542 7.14882 15.2157L2.07446 18.1455C3.66599 20.5707 5.89922 22.1669 8.77012 22.9364C11.8866 23.7715 14.8391 23.3861 17.6257 21.7775C20.4157 20.1666 22.2257 17.8022 23.0541 14.6897C23.8202 11.8205 23.5479 9.09179 22.2424 6.50125L17.1714 9.42903Z" fill="#0078D4"/>
<path fill-rule="evenodd" clip-rule="evenodd" d="M9.197 8.04562C7.16819 9.44444 6.65698 12.2217 8.0558 14.2508C9.45428 16.2796 12.2318 16.7908 14.2606 15.3923C16.2898 13.9939 16.8007 11.2163 15.4022 9.18716C14.0037 7.15802 11.2261 6.64714 9.197 8.04562Z" fill="#0078D4"/>
</g>
<path d="M38.3415 18.75H41.9865L37.0658 4.27126H33.3398L28.419 18.75H32.064L32.9348 15.7125H37.4505L38.3415 18.75ZM35.223 7.57201C35.223 7.57201 35.547 9.15151 35.8103 10.0628L36.6203 12.8775H33.765L34.5953 10.0628C34.8585 9.15151 35.1825 7.57201 35.1825 7.57201H35.223Z" fill="#0078D4"/>
<path d="M45.6117 18.75H49.1555V7.30876H53.5497V4.27126H41.2175V7.30876H45.6117V18.75Z" fill="#0078D4"/>
<path d="M54.2623 16.9275C54.2623 16.9275 56.1455 18.993 59.5475 18.993C62.8078 18.993 64.6505 16.9073 64.6505 14.4975C64.6505 9.92101 58.13 10.245 58.13 8.42251C58.13 7.61251 58.94 7.28851 59.669 7.28851C61.4105 7.28851 62.8685 8.56426 62.8685 8.56426L64.367 5.66851C64.367 5.66851 62.828 4.02826 59.7095 4.02826C56.834 4.02826 54.5863 5.79001 54.5863 8.46301C54.5863 12.918 61.1068 12.8573 61.1068 14.5785C61.1068 15.4493 60.317 15.7328 59.588 15.7328C57.7655 15.7328 56.1253 14.2343 56.1253 14.2343L54.2623 16.9275Z" fill="#0078D4"/>
<defs>
<clipPath id="clip0_127_2438">
<rect width="24" height="24" fill="white"/>
</clipPath>
</defs>
</svg>
