<svg width="17" height="17" viewBox="0 0 17 17" fill="none" xmlns="http://www.w3.org/2000/svg">
<path d="M7 0C4.79086 0 3 1.79086 3 4C3 6.20914 4.79086 8 7 8C9.20914 8 11 6.20914 11 4C11 1.79086 9.20914 0 7 0ZM4 4C4 2.34315 5.34315 1 7 1C8.65685 1 10 2.34315 10 4C10 5.65685 8.65685 7 7 7C5.34315 7 4 5.65685 4 4ZM2.00873 9C0.903151 9 0 9.88687 0 11C0 12.6912 0.83281 13.9663 2.13499 14.7966C3.41697 15.614 5.14526 16 7 16L7.04999 15.9999C7.01721 15.8384 7 15.6712 7 15.5V15C5.26489 15 3.74318 14.636 2.67262 13.9534C1.62226 13.2837 1 12.3088 1 11C1 10.4467 1.44786 10 2.00873 10L7.49981 10C7.86866 9.50895 8.41412 9.15814 9.04188 9.04188C9.04447 9.02788 9.04718 9.01392 9.05001 9L2.00873 9ZM10 9.5V10H9.5C8.67157 10 8 10.6716 8 11.5V15.5C8 16.3284 8.67157 17 9.5 17H15.5C16.3284 17 17 16.3284 17 15.5V11.5C17 10.6716 16.3284 10 15.5 10H15V9.5C15 8.67157 14.3284 8 13.5 8H11.5C10.6716 8 10 8.67157 10 9.5ZM11.5 9H13.5C13.7761 9 14 9.22386 14 9.5V10H11V9.5C11 9.22386 11.2239 9 11.5 9Z" fill="#212121"/>
</svg>
