<svg width="60" height="60" viewBox="0 0 60 60" fill="none" xmlns="http://www.w3.org/2000/svg">
<rect width="60" height="60" rx="3" fill="#E8D6FF"/>
<path d="M37.629 40.8373C41.0462 38.9591 39.0528 36.9243 37.629 36.1417L32.5033 36.1418C28.4027 31.7592 22.2517 34.8374 19.6889 36.9244H17.9803H17.126V46.3156C23.3908 46.0547 36.433 45.6895 38.4833 46.3156C41.0462 47.0982 47.0263 39.2721 47.8805 36.9243C48.564 35.046 46.172 33.1305 44.4634 34.5765L37.629 40.8373ZM37.629 40.8373H26.5232" stroke="#201F1E" stroke-width="1.5"/>
<rect x="12.75" y="36.2283" width="3.62576" height="11.0217" stroke="#201F1E" stroke-width="1.5"/>
<path d="M38.5875 16.6957C38.5875 18.8143 36.6916 20.6413 34.2117 20.6413C31.7318 20.6413 29.8359 18.8143 29.8359 16.6957C29.8359 14.577 31.7318 12.75 34.2117 12.75C36.6916 12.75 38.5875 14.577 38.5875 16.6957Z" stroke="#201F1E" stroke-width="1.5"/>
<rect x="29.8359" y="22.1414" width="8.75152" height="7.8913" rx="0.75" stroke="#201F1E" stroke-width="1.5"/>
</svg>
