<svg width="18" height="17" viewBox="0 0 18 17" fill="none" xmlns="http://www.w3.org/2000/svg">
<path d="M3.5 3.75C3.5 2.50736 4.50736 1.5 5.75 1.5C6.99264 1.5 8 2.50736 8 3.75C8 4.99264 6.99264 6 5.75 6C4.50736 6 3.5 4.99264 3.5 3.75ZM5.75 0.5C3.95507 0.5 2.5 1.95507 2.5 3.75C2.5 5.54493 3.95507 7 5.75 7C7.54493 7 9 5.54493 9 3.75C9 1.95507 7.54493 0.5 5.75 0.5ZM0.5 10C0.5 8.89543 1.39543 8 2.5 8H9C9.36123 8 9.7001 8.09577 9.99259 8.2633C9.71572 8.49277 9.46171 8.74886 9.23448 9.02764C9.15927 9.00957 9.08075 9 9 9H2.5C1.94772 9 1.5 9.44771 1.5 10V10.0602L1.50002 10.0612L1.50063 10.0781C1.50141 10.0951 1.50313 10.1233 1.50686 10.1611C1.51433 10.2368 1.52976 10.3497 1.56146 10.4874C1.62512 10.7638 1.75235 11.1312 2.00512 11.497C2.4916 12.2012 3.51315 13 5.75 13C6.70399 13 7.43693 12.8547 8.00159 12.6334C8.00989 12.9824 8.05071 13.3233 8.12112 13.6533C7.47689 13.8698 6.69552 14 5.75 14C3.23685 14 1.8834 13.0801 1.18238 12.0655C0.8414 11.5719 0.671755 11.08 0.586973 10.7118C0.544458 10.5272 0.522779 10.3716 0.511695 10.2593C0.506144 10.2031 0.503224 10.1574 0.501689 10.1241C0.500922 10.1074 0.500499 10.0938 0.500269 10.0835L0.500048 10.0705L0.50001 10.0658L0.500002 10.064L0.5 10.0625V10ZM12 4.5C12 3.67157 12.6716 3 13.5 3C14.3284 3 15 3.67157 15 4.5C15 5.32843 14.3284 6 13.5 6C12.6716 6 12 5.32843 12 4.5ZM13.5 2C12.1193 2 11 3.11929 11 4.5C11 5.88071 12.1193 7 13.5 7C14.8807 7 16 5.88071 16 4.5C16 3.11929 14.8807 2 13.5 2ZM18 12.5C18 14.9853 15.9853 17 13.5 17C11.0147 17 9 14.9853 9 12.5C9 10.0147 11.0147 8 13.5 8C15.9853 8 18 10.0147 18 12.5ZM14 10.5C14 10.2239 13.7761 10 13.5 10C13.2239 10 13 10.2239 13 10.5V12H11.5C11.2239 12 11 12.2239 11 12.5C11 12.7761 11.2239 13 11.5 13H13V14.5C13 14.7761 13.2239 15 13.5 15C13.7761 15 14 14.7761 14 14.5V13H15.5C15.7761 13 16 12.7761 16 12.5C16 12.2239 15.7761 12 15.5 12H14V10.5Z" fill="#212121"/>
</svg>
