<svg width="17" height="17" viewBox="0 0 17 17" fill="none" xmlns="http://www.w3.org/2000/svg">
<path d="M7 0C4.79086 0 3 1.79086 3 4C3 6.20914 4.79086 8 7 8C9.20914 8 11 6.20914 11 4C11 1.79086 9.20914 0 7 0ZM4 4C4 2.34315 5.34315 1 7 1C8.65685 1 10 2.34315 10 4C10 5.65685 8.65685 7 7 7C5.34315 7 4 5.65685 4 4ZM2.00873 9C0.903151 9 0 9.88687 0 11C0 12.6912 0.83281 13.9663 2.13499 14.7966C3.41697 15.614 5.14526 16 7 16C7.41085 16 7.8155 15.9811 8.21047 15.9427C7.97298 15.6472 7.7654 15.3266 7.59233 14.9855C7.39798 14.9951 7.20041 15 7 15C5.26489 15 3.74318 14.636 2.67262 13.9534C1.62226 13.2837 1 12.3088 1 11C1 10.4467 1.44786 10 2.00873 10L7.59971 10C7.7826 9.64222 8.00353 9.30711 8.25716 9L2.00873 9ZM17 12.5C17 14.9853 14.9853 17 12.5 17C10.0147 17 8 14.9853 8 12.5C8 10.0147 10.0147 8 12.5 8C14.9853 8 17 10.0147 17 12.5ZM12.976 9.86053C12.8262 9.37982 12.1738 9.37982 12.024 9.86053L11.5465 11.3923H10.0015C9.51662 11.3923 9.31501 12.0391 9.70728 12.3362L10.9572 13.2829L10.4798 14.8146C10.33 15.2953 10.8578 15.6951 11.25 15.398L12.5 14.4513L13.75 15.398C14.1422 15.6951 14.67 15.2953 14.5202 14.8146L14.0428 13.2829L15.2927 12.3362C15.685 12.0391 15.4834 11.3923 14.9985 11.3923H13.4535L12.976 9.86053Z" fill="#212121"/>
</svg>
