<svg width="16" height="17" viewBox="0 0 16 17" fill="none" xmlns="http://www.w3.org/2000/svg">
<path d="M16 4.49995C16 6.9852 13.9853 8.9999 11.5 8.9999C9.01472 8.9999 7 6.9852 7 4.49995C7 2.0147 9.01472 0 11.5 0C13.9853 0 16 2.0147 16 4.49995ZM12 2.49997C12 2.22383 11.7761 1.99998 11.5 1.99998C11.2239 1.99998 11 2.22383 11 2.49997V3.99995H9.5C9.22386 3.99995 9 4.22381 9 4.49995C9 4.77609 9.22386 4.99994 9.5 4.99994H11V6.49992C11 6.77606 11.2239 6.99992 11.5 6.99992C11.7761 6.99992 12 6.77606 12 6.49992V4.99994H13.5C13.7761 4.99994 14 4.77609 14 4.49995C14 4.22381 13.7761 3.99995 13.5 3.99995H12V2.49997ZM6 0.999988C6.399 0.999988 6.7889 1.03894 7.16611 1.11323C6.9427 1.39871 6.74689 1.70683 6.58268 2.03357C6.39154 2.01138 6.1971 1.99998 6 1.99998C3.23858 1.99998 1 4.23853 1 6.99992C1 9.76131 3.23858 11.9999 6 11.9999C7.71238 11.9999 9.22371 11.1391 10.1249 9.82658C10.4718 9.91588 10.832 9.97219 11.2019 9.99194C10.8816 10.5476 10.4748 11.0471 10 11.4721V16.5C10 16.6782 9.90512 16.843 9.75096 16.9325C9.59681 17.0219 9.40668 17.0226 9.25193 16.9341L6 15.0759L2.74807 16.9341C2.59332 17.0226 2.40319 17.0219 2.24904 16.9325C2.09488 16.843 2 16.6782 2 16.5V11.4721C0.772501 10.3735 0 8.7769 0 6.99992C0 3.68625 2.68629 0.999988 6 0.999988ZM6 12.9998C4.90714 12.9998 3.88252 12.7077 3 12.1972V15.6384L5.75193 14.0659C5.90565 13.9781 6.09435 13.9781 6.24807 14.0659L9 15.6384V12.1972C8.11748 12.7077 7.09286 12.9998 6 12.9998Z" fill="#212121"/>
</svg>
