<svg width="15" height="17" viewBox="0 0 15 17" fill="none" xmlns="http://www.w3.org/2000/svg">
<path d="M3.08535 2H1.5C1.22386 2 1 2.22386 1 2.5V14.5C1 14.7761 1.22386 15 1.5 15H5.59971C5.78261 15.3578 6.00353 15.6929 6.25716 16H1.5C0.671572 16 0 15.3284 0 14.5V2.5C0 1.67157 0.671573 1 1.5 1H3.08535C3.29127 0.417404 3.84689 0 4.5 0H7.5C8.15311 0 8.70873 0.417404 8.91465 1H10.5C11.3284 1 12 1.67157 12 2.5V7.20703C11.6777 7.11588 11.3434 7.05337 11 7.02242V2.5C11 2.22386 10.7761 2 10.5 2H8.91465C8.70873 2.5826 8.15311 3 7.5 3H4.5C3.84689 3 3.29127 2.5826 3.08535 2ZM3.75 9H6.25716C6.00353 9.30711 5.78261 9.64222 5.59971 10H3.75C3.67817 10 3.61484 10.0296 3.5739 10.0711C3.53553 10.11 3.52184 10.1523 3.52649 10.1961C3.57479 10.6509 3.70545 11.0816 4.02467 11.402C4.22732 11.6054 4.53879 11.7968 5.0317 11.906C5.01075 12.1012 5 12.2993 5 12.5C5 12.6418 5.00537 12.7824 5.01592 12.9216C4.26901 12.7921 3.71462 12.5076 3.31627 12.1078C2.76678 11.5563 2.59152 10.8614 2.53208 10.3017C2.45224 9.54978 3.08553 9 3.75 9ZM4 1.5C4 1.77614 4.22386 2 4.5 2H7.5C7.77614 2 8 1.77614 8 1.5C8 1.22386 7.77614 1 7.5 1H4.5C4.22386 1 4 1.22386 4 1.5ZM5 6C5 5.44772 5.44772 5 6 5C6.55228 5 7 5.44772 7 6C7 6.55228 6.55228 7 6 7C5.44772 7 5 6.55228 5 6ZM6 4C4.89543 4 4 4.89543 4 6C4 7.10457 4.89543 8 6 8C7.10457 8 8 7.10457 8 6C8 4.89543 7.10457 4 6 4ZM15 12.5C15 14.9853 12.9853 17 10.5 17C8.01472 17 6 14.9853 6 12.5C6 10.0147 8.01472 8 10.5 8C12.9853 8 15 10.0147 15 12.5ZM11 10.5C11 10.2239 10.7761 10 10.5 10C10.2239 10 10 10.2239 10 10.5V12H8.5C8.22386 12 8 12.2239 8 12.5C8 12.7761 8.22386 13 8.5 13H10V14.5C10 14.7761 10.2239 15 10.5 15C10.7761 15 11 14.7761 11 14.5V13H12.5C12.7761 13 13 12.7761 13 12.5C13 12.2239 12.7761 12 12.5 12H11V10.5Z" fill="#212121"/>
</svg>
