<svg width="14" height="16" viewBox="0 0 14 16" fill="none" xmlns="http://www.w3.org/2000/svg">
<path d="M3.5 6.5C3.5 6.22386 3.72386 6 4 6H6.5V3.5C6.5 3.22386 6.72386 3 7 3C7.27614 3 7.5 3.22386 7.5 3.5V6H10C10.2761 6 10.5 6.22386 10.5 6.5C10.5 6.77614 10.2761 7 10 7H7.5V9.5C7.5 9.77614 7.27614 10 7 10C6.72386 10 6.5 9.77614 6.5 9.5V7H4C3.72386 7 3.5 6.77614 3.5 6.5ZM11.9497 11.955C14.6834 9.2201 14.6834 4.78601 11.9497 2.05115C9.21608 -0.683716 4.78392 -0.683716 2.05025 2.05115C-0.683418 4.78601 -0.683418 9.2201 2.05025 11.955L3.57128 13.4538L5.61408 15.4389L5.74691 15.5567C6.52168 16.1847 7.65623 16.1455 8.38611 15.4391L10.8223 13.0691L11.9497 11.955ZM2.75499 2.75619C5.09944 0.410715 8.90055 0.410715 11.245 2.75619C13.5294 5.04153 13.5879 8.71039 11.4207 11.0667L11.245 11.2499L9.92371 12.5539L7.69315 14.7225L7.60016 14.8021C7.24594 15.0699 6.7543 15.0698 6.40012 14.802L6.30713 14.7224L3.3263 11.817L2.75499 11.2499L2.57927 11.0667C0.412077 8.71039 0.47065 5.04153 2.75499 2.75619Z" fill="#212121"/>
</svg>
