<svg width="15" height="15" viewBox="0 0 15 15" fill="none" xmlns="http://www.w3.org/2000/svg">
<path d="M12 1C12 0.723858 11.7761 0.5 11.5 0.5C11.2239 0.5 11 0.723858 11 1V3H9C8.72386 3 8.5 3.22386 8.5 3.5C8.5 3.77614 8.72386 4 9 4H11V6C11 6.27614 11.2239 6.5 11.5 6.5C11.7761 6.5 12 6.27614 12 6V4H14C14.2761 4 14.5 3.77614 14.5 3.5C14.5 3.22386 14.2761 3 14 3L12 3V1ZM1.5 15C0.671573 15 0 14.3284 0 13.5V2.5C0 1.67157 0.671573 1 1.5 1H6C6.82843 1 7.5 1.67157 7.5 2.5V7.5H12.5C13.3284 7.5 14 8.17157 14 9V13.5C14 14.3284 13.3284 15 12.5 15H1.5ZM7.5 8.5V14H12.5C12.7761 14 13 13.7761 13 13.5V9C13 8.72386 12.7761 8.5 12.5 8.5H7.5ZM6.5 14V8.5H1V13.5C1 13.7589 1.19675 13.9718 1.44888 13.9974C1.46569 13.9991 1.48274 14 1.5 14H6.5ZM6.5 2.5C6.5 2.22386 6.27614 2 6 2H1.5C1.22386 2 1 2.22386 1 2.5V7.5H6.5V2.5Z" fill="#212121"/>
</svg>
