<svg width="16" height="16" viewBox="0 0 16 16" fill="none" xmlns="http://www.w3.org/2000/svg">
<path d="M14.3536 1.64643C13.3299 0.622742 11.6701 0.622738 10.6465 1.64643L5.14646 7.14643C5.08238 7.21051 5.03692 7.2908 5.01494 7.37872L4.01494 11.3787C3.97234 11.5491 4.02227 11.7293 4.14646 11.8535C4.27065 11.9777 4.45089 12.0277 4.62128 11.9851L8.62128 10.9851C8.70919 10.9631 8.78948 10.9176 8.85356 10.8535L14.3536 5.35353C15.3773 4.32985 15.3773 2.67012 14.3536 1.64643ZM11.3536 2.35353C11.9867 1.72037 13.0133 1.72037 13.6465 2.35354C14.2796 2.9867 14.2796 4.01326 13.6465 4.64643L8.24438 10.0485L5.18719 10.8128L5.95149 7.75561L11.3536 2.35353ZM7 2.99998C7.2791 2.99998 7.55374 3.01904 7.82271 3.05592L8.67659 2.20205C8.13943 2.07001 7.57789 1.99998 7 1.99998C3.13401 1.99998 0 5.13399 0 8.99998C0 12.866 3.13401 16 7 16C10.866 16 14 12.866 14 8.99998C14 8.42207 13.93 7.86052 13.7979 7.32335L12.9441 8.17722C12.9809 8.4462 13 8.72087 13 8.99998C13 12.3137 10.3137 15 7 15C3.68629 15 1 12.3137 1 8.99998C1 5.68628 3.68629 2.99998 7 2.99998Z" fill="#212121"/>
</svg>
