<svg width="17" height="17" viewBox="0 0 17 17" fill="none" xmlns="http://www.w3.org/2000/svg">
<path d="M3.00002 4C3.00002 1.79086 4.7909 0 7.00005 0C9.2092 0 11.0001 1.79086 11.0001 4C11.0001 5.19469 10.4763 6.26706 9.64589 7H9.51309C8.7098 7 7.99454 7.37733 7.53447 7.96461C7.35965 7.98795 7.18126 8 7.00005 8C4.7909 8 3.00002 6.20914 3.00002 4ZM7.00005 1C5.34318 1 4.00003 2.34315 4.00003 4C4.00003 5.65685 5.34318 7 7.00005 7C8.65692 7 10.0001 5.65685 10.0001 4C10.0001 2.34315 8.65692 1 7.00005 1ZM7.05286 9L2.00874 9C0.903157 9 0 9.88687 0 11C0 12.6912 0.832816 13.9663 2.13501 14.7966C3.41699 15.614 5.14529 16 7.00005 16C7.80325 16 8.58273 15.9276 9.31252 15.7792L8.45904 14.9081C7.99484 14.969 7.50654 15 7.00005 15C5.26493 15 3.74321 14.636 2.67264 13.9534C1.62228 13.2837 1.00001 12.3088 1.00001 11C1.00001 10.4467 1.44787 10 2.00874 10L6.99994 10V9.51614C6.99994 9.33923 7.01817 9.1666 7.05286 9ZM7.99994 12.3907C7.99994 12.7866 8.15504 13.1668 8.4319 13.4494L11.466 16.5469C12.0458 17.1387 12.9933 17.1526 13.5901 16.578L16.5367 13.7407C17.1442 13.1557 17.1558 12.1858 16.5624 11.5864L13.4549 8.44743C13.1714 8.16108 12.7854 8 12.3828 8H9.50959C8.67583 8 7.99994 8.67688 7.99994 9.51185V12.3907ZM10.7501 11.5C10.3359 11.5 10.0001 11.1642 10.0001 10.75C10.0001 10.3358 10.3359 10 10.7501 10C11.1643 10 11.5001 10.3358 11.5001 10.75C11.5001 11.1642 11.1643 11.5 10.7501 11.5Z" fill="#212121"/>
</svg>
