<svg width="24" height="24" viewBox="0 0 24 24" fill="none" xmlns="http://www.w3.org/2000/svg">
<g filter="url(#filter0_d_4841_19070)">
<ellipse cx="12.1078" cy="10" rx="10.1078" ry="10" fill="white"/>
<path d="M22.0054 10C22.0054 15.4047 17.5762 19.7898 12.1078 19.7898C6.63935 19.7898 2.21017 15.4047 2.21017 10C2.21017 4.59534 6.63935 0.210168 12.1078 0.210168C17.5762 0.210168 22.0054 4.59534 22.0054 10Z" stroke="#999DA0" stroke-width="0.420336"/>
</g>
<path d="M12 9.99967C11.3584 9.99967 10.8091 9.7712 10.3521 9.31426C9.89518 8.85731 9.66671 8.30801 9.66671 7.66634C9.66671 7.02467 9.89518 6.47537 10.3521 6.01842C10.8091 5.56148 11.3584 5.33301 12 5.33301C12.6417 5.33301 13.191 5.56148 13.648 6.01842C14.1049 6.47537 14.3334 7.02467 14.3334 7.66634C14.3334 8.30801 14.1049 8.85731 13.648 9.31426C13.191 9.7712 12.6417 9.99967 12 9.99967ZM15.5 14.6663H8.50004C8.17921 14.6663 7.90465 14.5522 7.67637 14.3239C7.44771 14.0953 7.33337 13.8205 7.33337 13.4997V13.033C7.33337 12.7025 7.41854 12.3985 7.58887 12.1213C7.75882 11.8444 7.98476 11.633 8.26671 11.4872C8.86949 11.1858 9.48199 10.9596 10.1042 10.8088C10.7264 10.6583 11.3584 10.583 12 10.583C12.6417 10.583 13.2737 10.6583 13.8959 10.8088C14.5181 10.9596 15.1306 11.1858 15.7334 11.4872C16.0153 11.633 16.2413 11.8444 16.4112 12.1213C16.5815 12.3985 16.6667 12.7025 16.6667 13.033V13.4997C16.6667 13.8205 16.5526 14.0953 16.3243 14.3239C16.0956 14.5522 15.8209 14.6663 15.5 14.6663ZM8.50004 13.4997H15.5V13.033C15.5 12.9261 15.4734 12.8288 15.4201 12.7413C15.3665 12.6538 15.2959 12.5858 15.2084 12.5372C14.6834 12.2747 14.1535 12.0777 13.6188 11.9463C13.0841 11.8152 12.5445 11.7497 12 11.7497C11.4556 11.7497 10.916 11.8152 10.3813 11.9463C9.84657 12.0777 9.31671 12.2747 8.79171 12.5372C8.70421 12.5858 8.63382 12.6538 8.58054 12.7413C8.52687 12.8288 8.50004 12.9261 8.50004 13.033V13.4997ZM12 8.83301C12.3209 8.83301 12.5956 8.71867 12.8243 8.49001C13.0526 8.26173 13.1667 7.98717 13.1667 7.66634C13.1667 7.34551 13.0526 7.07095 12.8243 6.84267C12.5956 6.61401 12.3209 6.49967 12 6.49967C11.6792 6.49967 11.4047 6.61401 11.1764 6.84267C10.9477 7.07095 10.8334 7.34551 10.8334 7.66634C10.8334 7.98717 10.9477 8.26173 11.1764 8.49001C11.4047 8.71867 11.6792 8.83301 12 8.83301Z" fill="black"/>
<defs>
<filter id="filter0_d_4841_19070" x="0.318657" y="0" width="23.5783" height="23.3627" filterUnits="userSpaceOnUse" color-interpolation-filters="sRGB">
<feFlood flood-opacity="0" result="BackgroundImageFix"/>
<feColorMatrix in="SourceAlpha" type="matrix" values="0 0 0 0 0 0 0 0 0 0 0 0 0 0 0 0 0 0 127 0" result="hardAlpha"/>
<feOffset dy="1.68134"/>
<feGaussianBlur stdDeviation="0.840671"/>
<feComposite in2="hardAlpha" operator="out"/>
<feColorMatrix type="matrix" values="0 0 0 0 0 0 0 0 0 0 0 0 0 0 0 0 0 0 0.25 0"/>
<feBlend mode="normal" in2="BackgroundImageFix" result="effect1_dropShadow_4841_19070"/>
<feBlend mode="normal" in="SourceGraphic" in2="effect1_dropShadow_4841_19070" result="shape"/>
</filter>
</defs>
</svg>
