<svg width="17" height="15" viewBox="0 0 17 15" fill="none" xmlns="http://www.w3.org/2000/svg">
<path d="M1 0.5C1 0.223858 1.22386 0 1.5 0H16.5C16.7761 0 17 0.223858 17 0.5C17 0.776142 16.7761 1 16.5 1H1.5C1.22386 1 1 0.776142 1 0.5ZM1 5.5C1 5.22386 1.22386 5 1.5 5H16.5C16.7761 5 17 5.22386 17 5.5C17 5.77614 16.7761 6 16.5 6H1.5C1.22386 6 1 5.77614 1 5.5ZM6.58637 9C5.97349 9 5.49288 9.55462 5.49288 10.1364C5.49288 10.4125 5.26902 10.6364 4.99288 10.6364C4.71673 10.6364 4.49288 10.4125 4.49288 10.1364C4.49288 9.08174 5.345 8 6.58637 8C7.31637 8 8.01475 8.34342 8.40349 8.94432C8.80682 9.56777 8.82562 10.3859 8.34599 11.2068C8.10209 11.6242 7.76591 11.9422 7.43263 12.2069C7.26565 12.3395 7.09325 12.4634 6.92944 12.5798C6.90563 12.5967 6.88205 12.6134 6.85868 12.63C6.71811 12.7298 6.5852 12.8241 6.4565 12.9214C6.01716 13.2539 5.6996 13.5685 5.56473 14H8.16048C8.43663 14 8.66048 14.2239 8.66048 14.5C8.66048 14.7761 8.43663 15 8.16048 15H5.00777C5.00528 15 5.0028 15 5.00032 14.9999C4.99784 15 4.99536 15 4.99288 15C4.71673 15 4.49288 14.7761 4.49288 14.5C4.49288 13.3052 5.18416 12.6302 5.8531 12.124C5.99508 12.0166 6.14202 11.9123 6.28191 11.8131C6.30486 11.7968 6.32763 11.7807 6.35015 11.7647C6.51313 11.6488 6.66648 11.5383 6.81074 11.4238C7.09991 11.1941 7.32809 10.9667 7.48257 10.7023C7.79968 10.1596 7.73397 9.75041 7.56388 9.4875C7.37921 9.20204 7.01527 9 6.58637 9ZM11.0687 9.26953C10.9047 9.41501 10.8181 9.59673 10.781 9.7275C10.7055 9.99314 10.429 10.1473 10.1634 10.0719C9.89777 9.99645 9.74358 9.71995 9.81902 9.45432C9.89548 9.18509 10.0669 8.82135 10.4052 8.52138C10.753 8.2129 11.2462 8 11.9066 8C13.2505 8 14.0131 8.98423 14.0131 9.86364C14.0131 10.2164 13.9452 10.7569 13.5816 11.2169C13.5097 11.3078 13.429 11.3923 13.3391 11.4695C13.4743 11.5697 13.6011 11.6927 13.7081 11.8437C13.9045 12.121 14.0131 12.4627 14.0131 12.8636C14.0131 13.5944 13.7686 14.1549 13.3346 14.5232C12.9153 14.8791 12.3845 15 11.9066 15C11.4542 15 11.0126 14.9242 10.634 14.6832C10.246 14.4362 9.98538 14.0553 9.8248 13.5646C9.73891 13.3022 9.88204 13.0198 10.1445 12.9339C10.4069 12.848 10.6893 12.9911 10.7752 13.2536C10.8824 13.5811 11.0234 13.7456 11.171 13.8396C11.3278 13.9394 11.5556 14 11.9066 14C12.2319 14 12.5043 13.9163 12.6875 13.7608C12.856 13.6179 13.0131 13.3602 13.0131 12.8636C13.0131 12.651 12.9584 12.5154 12.8922 12.4219C12.8226 12.3237 12.7178 12.2408 12.5757 12.1738C12.2785 12.0337 11.8987 12 11.6388 12C11.3627 12 11.1388 11.7761 11.1388 11.5C11.1388 11.2239 11.3627 11 11.6388 11C12.3439 11 12.6502 10.7825 12.7971 10.5967C12.9617 10.3885 13.0131 10.1109 13.0131 9.86364C13.0131 9.54304 12.7047 9 11.9066 9C11.4764 9 11.2231 9.13256 11.0687 9.26953ZM2.01003 10.3648C1.75483 10.6417 1.46627 10.8921 1.16041 11.0971C0.931037 11.2509 0.620446 11.1896 0.466688 10.9602C0.312931 10.7308 0.374232 10.4203 0.603608 10.2665C1.33596 9.77558 1.8922 8.98785 2.02146 8.39371C2.02146 8.39371 2.13049 8 2.48206 8C2.98285 8 3.01003 8.5 3.01003 8.5V14.5C3.01003 14.7761 2.78617 15 2.51003 15C2.23389 15 2.01003 14.7761 2.01003 14.5V10.3648ZM15 10.5C15 10.2239 15.2239 10 15.5 10H16.5C16.7761 10 17 10.2239 17 10.5C17 10.7761 16.7761 11 16.5 11H15.5C15.2239 11 15 10.7761 15 10.5Z" fill="#212121"/>
</svg>
