<svg width="26" height="26" viewBox="0 0 26 26" fill="none" xmlns="http://www.w3.org/2000/svg">
<path d="M20.0629 12.9577L13.3119 19.9798C13.0822 20.2187 13.0897 20.5985 13.3286 20.8282C13.5674 21.0578 13.9473 21.0504 14.1769 20.8115L21.3325 13.3685C21.5578 13.1343 21.5555 12.7633 21.3275 12.5317L14.0834 5.17493C13.8509 4.93882 13.471 4.93589 13.2349 5.16839C12.9988 5.40089 12.9958 5.78077 13.2283 6.01689L20.0629 12.9577Z" fill="#201F1E"/>
<path d="M13.0629 12.9996L6.31187 20.0217C6.08221 20.2606 6.08969 20.6404 6.32857 20.8701C6.56745 21.0997 6.94727 21.0923 7.17693 20.8534L14.3325 13.4104C14.5578 13.1762 14.5555 12.8052 14.3275 12.5736L7.08339 5.21683C6.85089 4.98072 6.471 4.97779 6.23489 5.21029C5.99877 5.44279 5.99584 5.82267 6.22834 6.05879L13.0629 12.9996Z" fill="#201F1E"/>
</svg>
