<svg width="24" height="24" viewBox="0 0 24 24" fill="none" xmlns="http://www.w3.org/2000/svg">
<path d="M4.93714 12L11.73 5.01841C11.9611 4.78091 11.9559 4.40105 11.7184 4.16996C11.4809 3.93888 11.101 3.94409 10.87 4.18159L3.66996 11.5816C3.44335 11.8145 3.44335 12.1855 3.66996 12.4184L10.87 19.8184C11.101 20.0559 11.4809 20.0611 11.7184 19.83C11.9559 19.599 11.9611 19.2191 11.73 18.9816L4.93714 12Z" fill="#201F1E"/>
<path d="M11.9371 12L18.73 5.01841C18.9611 4.78091 18.9559 4.40105 18.7184 4.16996C18.4809 3.93888 18.101 3.94409 17.87 4.18159L10.67 11.5816C10.4433 11.8145 10.4433 12.1855 10.67 12.4184L17.87 19.8184C18.101 20.0559 18.4809 20.0611 18.7184 19.83C18.9559 19.599 18.9611 19.2191 18.73 18.9816L11.9371 12Z" fill="#201F1E"/>
</svg>
