<svg width="60" height="60" viewBox="0 0 60 60" fill="none" xmlns="http://www.w3.org/2000/svg">
<rect width="60" height="60" rx="3" fill="#FFDAD6"/>
<path d="M30 15C35.799 15 40.5 19.701 40.5 25.5C40.5 28.3605 39.3562 30.9538 37.5009 32.8475L37.4988 43.8753C37.4988 44.7332 36.5889 45.2559 35.8604 44.877L35.7262 44.7952L29.9986 40.7635L24.274 44.7951C23.5725 45.2891 22.6211 44.846 22.5116 44.0321L22.5012 43.8753L22.4991 32.8475C20.6438 30.9538 19.5 28.3605 19.5 25.5C19.5 19.701 24.201 15 30 15ZM35.2488 41.7076L35.2491 34.5958C33.7049 35.4889 31.9121 36 30 36C28.0879 36 26.2951 35.4889 24.7509 34.5958L24.7512 41.707L29.3507 38.4679C29.6905 38.2285 30.1299 38.1986 30.4947 38.378L30.646 38.4677L35.2488 41.7076L35.2491 34.5958L35.2488 41.7076ZM30 17.25C25.4437 17.25 21.75 20.9437 21.75 25.5C21.75 30.0563 25.4437 33.75 30 33.75C34.5563 33.75 38.25 30.0563 38.25 25.5C38.25 20.9437 34.5563 17.25 30 17.25Z" fill="#201F1E"/>
</svg>
