<svg width="24" height="24" viewBox="0 0 24 24" fill="none" xmlns="http://www.w3.org/2000/svg">
<path d="M20 24H4C2.9 24 2 23.1 2 22V2C2 0.9 2.9 0 4 0H20C21.1 0 22 0.9 22 2V22C22 23.1 21.1 24 20 24Z" fill="url(#paint0_linear_670_2491)"/>
<g opacity="0.6">
<path d="M7 3H5V5H7V3Z" fill="white"/>
</g>
<g opacity="0.6">
<path d="M19 3H8V5H19V3Z" fill="white"/>
</g>
<g opacity="0.85">
<path d="M7 7H5V9H7V7Z" fill="white"/>
</g>
<g opacity="0.85">
<path d="M19 7H8V9H19V7Z" fill="white"/>
</g>
<g opacity="0.6">
<path d="M7 11H5V13H7V11Z" fill="white"/>
</g>
<g opacity="0.6">
<path d="M19 11H8V13H19V11Z" fill="white"/>
</g>
<g opacity="0.6">
<path d="M7 15H5V17H7V15Z" fill="white"/>
</g>
<g opacity="0.6">
<path d="M19 15H8V17H19V15Z" fill="white"/>
</g>
<defs>
<linearGradient id="paint0_linear_670_2491" x1="12" y1="0" x2="12" y2="24" gradientUnits="userSpaceOnUse">
<stop stop-color="#CC3929"/>
<stop offset="1" stop-color="#B82616"/>
</linearGradient>
</defs>
</svg>
