<svg width="18" height="18" viewBox="0 0 18 18" fill="none" xmlns="http://www.w3.org/2000/svg">
<path d="M7.461 0.897537L8.45065 1.28702C8.80368 1.42595 9.19625 1.42595 9.54928 1.28702L10.5389 0.897537C11.7503 0.420815 13.1216 0.988835 13.6411 2.18248L14.0654 3.15767C14.2168 3.50555 14.4944 3.78313 14.8423 3.93452L15.8175 4.35891C17.0111 4.87836 17.5792 6.24969 17.1024 7.46103L16.7129 8.45068C16.574 8.80371 16.574 9.19628 16.7129 9.54931L17.1024 10.539C17.5792 11.7503 17.0111 13.1216 15.8175 13.6411L14.8423 14.0655C14.4944 14.2169 14.2168 14.4945 14.0654 14.8423L13.6411 15.8175C13.1216 17.0112 11.7503 17.5792 10.5389 17.1025L9.54928 16.713C9.19625 16.574 8.80368 16.574 8.45065 16.713L7.461 17.1025C6.24966 17.5792 4.87833 17.0112 4.35888 15.8175L3.93449 14.8423C3.7831 14.4945 3.50551 14.2169 3.15764 14.0655L2.18245 13.6411C0.988805 13.1216 0.420784 11.7503 0.897507 10.539L1.28698 9.54931C1.42592 9.19628 1.42592 8.80371 1.28698 8.45068L0.897507 7.46103C0.420784 6.24969 0.988805 4.87836 2.18245 4.35891L3.15764 3.93452C3.50551 3.78313 3.7831 3.50555 3.93449 3.15767L4.35888 2.18248C4.87833 0.988835 6.24966 0.420815 7.461 0.897537ZM10.9051 1.82807L9.91549 2.21755C9.3271 2.44911 8.67283 2.44911 8.08444 2.21755L7.09479 1.82807C6.3845 1.54854 5.5804 1.8816 5.27581 2.58151L4.85143 3.55671C4.59911 4.1365 4.13647 4.59914 3.55668 4.85146L2.58148 5.27584C1.88157 5.58043 1.54851 6.38453 1.82804 7.09482L2.21752 8.08447C2.44908 8.67286 2.44908 9.32714 2.21752 9.91552L1.82804 10.9052C1.54851 11.6155 1.88157 12.4196 2.58148 12.7241L3.55668 13.1485C4.13647 13.4009 4.59911 13.8635 4.85143 14.4433L5.27581 15.4185C5.5804 16.1184 6.3845 16.4515 7.09479 16.1719L8.08444 15.7824C8.67283 15.5509 9.3271 15.5509 9.91549 15.7824L10.9051 16.1719C11.6154 16.4515 12.4195 16.1184 12.7241 15.4185L13.1485 14.4433C13.4008 13.8635 13.8635 13.4009 14.4433 13.1485L15.4185 12.7241C16.1184 12.4196 16.4514 11.6155 16.1719 10.9052L15.7824 9.91552C15.5509 9.32714 15.5509 8.67286 15.7824 8.08447L16.1719 7.09482C16.4514 6.38453 16.1184 5.58043 15.4185 5.27584L14.4433 4.85146C13.8635 4.59914 13.4008 4.1365 13.1485 3.55671L12.7241 2.58151C12.4195 1.8816 11.6154 1.54854 10.9051 1.82807ZM7.97856 10.7715L11.6263 6.66782C11.8097 6.46142 12.1258 6.44283 12.3321 6.62629C12.5156 6.78937 12.5507 7.05719 12.4274 7.25965L12.3737 7.33218L8.37367 11.8322C8.20378 12.0233 7.92203 12.0523 7.71864 11.9135L7.64641 11.8536L5.64641 9.85355C5.45115 9.65829 5.45115 9.34171 5.64641 9.14644C5.81998 8.97288 6.0894 8.95359 6.28427 9.08859L6.35352 9.14644L7.97856 10.7715L11.6263 6.66782L7.97856 10.7715Z" fill="#212121"/>
</svg>
