<svg width="70" height="70" viewBox="0 0 70 70" fill="none" xmlns="http://www.w3.org/2000/svg">
<path d="M17.5003 64.1667C15.8962 64.1667 14.5234 63.596 13.382 62.4546C12.2387 61.3113 11.667 59.9375 11.667 58.3333V11.6667C11.667 10.0625 12.2387 8.68875 13.382 7.54542C14.5234 6.40403 15.8962 5.83333 17.5003 5.83333H40.8337L58.3337 23.3333V58.3333C58.3337 59.9375 57.763 61.3113 56.6216 62.4546C55.4782 63.596 54.1045 64.1667 52.5003 64.1667H17.5003ZM37.917 26.25H52.5003L37.917 11.6667V26.25Z" fill="#545454"/>
<path d="M34.1 48.5H35.9V44.9H39.5V43.1H35.9V39.5H34.1V43.1H30.5V44.9H34.1V48.5ZM35 53C33.755 53 32.585 52.7636 31.49 52.2908C30.395 51.8186 29.4425 51.1775 28.6325 50.3675C27.8225 49.5575 27.1814 48.605 26.7092 47.51C26.2364 46.415 26 45.245 26 44C26 42.755 26.2364 41.585 26.7092 40.49C27.1814 39.395 27.8225 38.4425 28.6325 37.6325C29.4425 36.8225 30.395 36.1811 31.49 35.7083C32.585 35.2361 33.755 35 35 35C36.245 35 37.415 35.2361 38.51 35.7083C39.605 36.1811 40.5575 36.8225 41.3675 37.6325C42.1775 38.4425 42.8186 39.395 43.2908 40.49C43.7636 41.585 44 42.755 44 44C44 45.245 43.7636 46.415 43.2908 47.51C42.8186 48.605 42.1775 49.5575 41.3675 50.3675C40.5575 51.1775 39.605 51.8186 38.51 52.2908C37.415 52.7636 36.245 53 35 53Z" fill="white"/>
</svg>
