<svg width="60" height="60" viewBox="0 0 60 60" fill="none" xmlns="http://www.w3.org/2000/svg">
<rect width="60" height="60" rx="3" fill="#CCE9FF"/>
<path d="M30.3611 16.4465C30.0095 16.4465 29.6956 16.6078 29.4893 16.8604L29.4038 16.9252C26.1871 15.9501 22.548 16.7264 20.0041 19.2541C17.7413 21.5024 16.8731 24.6117 17.3995 27.5207L17.377 27.5429L15.9412 28.9694C14.6928 30.2099 14.6928 32.2211 15.9412 33.4615C16.6747 34.1903 17.6758 34.4909 18.6302 34.3634C18.7708 34.8828 19.0462 35.3737 19.4565 35.7813C20.0141 36.3353 20.7265 36.6419 21.4553 36.7011C21.5147 37.4254 21.8233 38.1334 22.381 38.6876C22.9644 39.2672 23.7171 39.576 24.4809 39.614C24.5192 40.3727 24.83 41.1204 25.4132 41.7C26.5537 42.8331 28.3413 42.9311 29.5938 41.9941L30.1736 42.5702C31.4281 43.8166 33.462 43.8166 34.7165 42.5702C35.2722 42.018 35.5817 41.3143 35.6451 40.5932C36.3695 40.5315 37.0767 40.2253 37.6313 39.6743C38.1872 39.1219 38.4956 38.4171 38.5565 37.6955C39.2715 37.6287 39.9681 37.3233 40.5158 36.779C40.945 36.3526 41.2267 35.835 41.3609 35.289C42.3008 35.4005 43.2811 35.0979 44.0025 34.3812C45.2509 33.1407 45.2509 31.1296 44.0025 29.8891L42.7523 28.6469L43.0091 27.647C43.5677 25.4732 43.2868 23.1704 42.2225 21.1928C40.6512 18.273 37.5923 16.454 34.2674 16.454L31.8573 16.454C31.7546 16.4491 31.6513 16.4465 31.5476 16.4465H30.3611ZM34.7475 23.8642L39.943 29.0265L39.9488 29.0327L39.9688 29.053L42.4064 31.475C42.7733 31.8396 42.7733 32.4307 42.4064 32.7953C42.0394 33.1599 41.4445 33.1599 41.0775 32.7953L38.64 30.3734C38.1992 29.9355 37.4846 29.9355 37.0439 30.3734L37.0195 30.3976C36.5787 30.8356 36.5787 31.5456 37.0195 31.9835L38.9197 33.8716C39.287 34.2365 39.287 34.8282 38.9197 35.1931C38.585 35.5257 38.0588 35.5556 37.6912 35.2809C37.2401 34.9437 36.6077 34.9895 36.2106 35.3881C35.8135 35.7867 35.7738 36.4155 36.1177 36.8602C36.4004 37.2257 36.3723 37.7535 36.0352 38.0884C35.6953 38.4261 35.1584 38.4516 34.7903 38.1636C34.3421 37.813 33.7012 37.8498 33.2966 38.2493C32.892 38.6487 32.851 39.2853 33.201 39.7328C33.4915 40.1042 33.4641 40.6428 33.1204 40.9843C32.7474 41.3549 32.1427 41.3549 31.7697 40.9843L31.2121 40.4303L31.37 40.2734C32.6184 39.0329 32.6184 37.0218 31.37 35.7813C30.7866 35.2017 30.0339 34.8929 29.2701 34.8549C29.2318 34.0962 28.921 33.3485 28.3378 32.769C27.7802 32.2149 27.0678 31.9083 26.339 31.8492C26.2796 31.1248 25.971 30.4168 25.4132 29.8626C24.6798 29.1339 23.6786 28.8333 22.7243 28.9608C22.5837 28.4414 22.3082 27.9505 21.898 27.5429C21.251 26.9 20.3956 26.5903 19.5479 26.6138C19.3277 24.5547 20.0118 22.4182 21.6002 20.84C23.0765 19.3731 25.0382 18.6824 26.9716 18.7679L24.7255 20.4697C23.1897 21.6333 22.8938 23.8192 24.065 25.3492C25.2336 26.8757 27.4208 27.1717 28.9531 26.0108L31.7863 23.8642H34.7475ZM26.0842 22.2631L30.7917 18.6965H31.5476C31.6218 18.6965 31.6954 18.6985 31.7684 18.7024C31.7885 18.7035 31.8085 18.704 31.8286 18.704H34.2674C36.7696 18.704 39.0647 20.0729 40.2411 22.259C40.9832 23.638 41.2161 25.2267 40.9069 26.7518L36.0887 21.9571C35.8768 21.738 35.5849 21.6142 35.2801 21.6142L31.4083 21.6142C31.163 21.6142 30.9244 21.6944 30.7289 21.8425L27.5944 24.2174C27.049 24.6305 26.2675 24.5247 25.8516 23.9815C25.4384 23.4417 25.5424 22.6736 26.0842 22.2631ZM21.0526 34.1954C20.8007 33.9452 20.7217 33.5882 20.8156 33.271C20.8585 33.1261 20.9375 32.9894 21.0526 32.8751L22.4883 31.4485C22.8552 31.0839 23.4502 31.0839 23.8171 31.4485C24.1799 31.809 24.1841 32.3908 23.8296 32.7563L23.8168 32.769L22.381 34.1955L22.3687 34.2079C22.2562 34.3155 22.1234 34.3898 21.9829 34.4309C21.6637 34.5242 21.3044 34.4457 21.0526 34.1954ZM20.3156 29.1427C20.4289 29.26 20.5053 29.3993 20.545 29.5464C20.629 29.8581 20.548 30.2046 20.3019 30.4491L18.8662 31.8757C18.4992 32.2403 17.9043 32.2403 17.5373 31.8757C17.1704 31.5111 17.1704 30.9199 17.5373 30.5553L18.973 29.1288C19.34 28.7642 19.9349 28.7642 20.3019 29.1288L20.3156 29.1427ZM28.3382 40.1141C28.2229 40.2286 28.0851 40.3072 27.9389 40.3498C27.6199 40.4427 27.261 40.3641 27.0093 40.1141C26.7577 39.864 26.6786 39.5075 26.7721 39.1905C26.8149 39.0452 26.894 38.9083 27.0093 38.7937L28.4451 37.3672C28.812 37.0026 29.407 37.0026 29.7739 37.3672C30.1409 37.7318 30.1409 38.3229 29.7739 38.6875L28.3382 40.1141ZM25.306 37.1017C25.191 37.216 25.0536 37.2945 24.9078 37.3371C24.5885 37.4305 24.2291 37.3521 23.9771 37.1017C23.7252 36.8514 23.6462 36.4943 23.7402 36.177C23.7816 36.0374 23.8564 35.9056 23.9647 35.794L23.9775 35.7813L25.4132 34.3548L25.4256 34.3424C25.7935 33.9903 26.379 33.9944 26.7417 34.3548C27.1087 34.7194 27.1087 35.3106 26.7417 35.6752L25.306 37.1017Z" fill="#212121"/>
</svg>
