<svg width="60" height="60" viewBox="0 0 60 60" fill="none" xmlns="http://www.w3.org/2000/svg">
<rect width="60" height="60" rx="3" fill="#D0F5CE"/>
<path d="M20.25 22.5C20.25 20.4289 21.9289 18.75 24 18.75C26.0711 18.75 27.75 20.4289 27.75 22.5C27.75 24.5711 26.0711 26.25 24 26.25C21.9289 26.25 20.25 24.5711 20.25 22.5ZM24 16.5C20.6863 16.5 18 19.1863 18 22.5C18 25.8137 20.6863 28.5 24 28.5C27.3137 28.5 30 25.8137 30 22.5C30 19.1863 27.3137 16.5 24 16.5ZM35.25 24C35.25 22.7574 36.2574 21.75 37.5 21.75C38.7426 21.75 39.75 22.7574 39.75 24C39.75 25.2426 38.7426 26.25 37.5 26.25C36.2574 26.25 35.25 25.2426 35.25 24ZM37.5 19.5C35.0147 19.5 33 21.5147 33 24C33 26.4853 35.0147 28.5 37.5 28.5C39.9853 28.5 42 26.4853 42 24C42 21.5147 39.9853 19.5 37.5 19.5ZM18.375 31.5C16.511 31.5 15 33.011 15 34.875V35.2516L15 35.2533L15 35.2572L15.0001 35.2666L15.0005 35.2915C15.001 35.3109 15.0018 35.3357 15.0031 35.3656C15.0059 35.4254 15.0112 35.5057 15.021 35.6036C15.0405 35.7992 15.0785 36.0675 15.1525 36.3845C15.2999 37.0165 15.5948 37.8606 16.1877 38.7076C17.416 40.4623 19.7577 42 24 42C26.0535 42 27.6616 41.6397 28.9137 41.0689C28.6902 40.3276 28.5525 39.549 28.5123 38.7448C27.5449 39.3162 26.119 39.75 24 39.75C20.3673 39.75 18.7715 38.4752 18.031 37.4174C17.6396 36.8581 17.4423 36.296 17.3436 35.8733C17.2946 35.663 17.271 35.4918 17.2598 35.3798C17.2542 35.3239 17.2518 35.2834 17.2507 35.2607L17.25 35.242V34.875C17.25 34.2537 17.7537 33.75 18.375 33.75H29.5983C29.971 33.035 30.4297 32.3719 30.9607 31.7746C30.5511 31.5979 30.0995 31.5 29.625 31.5H18.375ZM46.5 38.25C46.5 42.8064 42.8064 46.5 38.25 46.5C33.6937 46.5 30 42.8064 30 38.25C30 33.6937 33.6937 30 38.25 30C42.8064 30 46.5 33.6937 46.5 38.25ZM43.2803 34.7197C42.9874 34.4268 42.5126 34.4268 42.2197 34.7197L36.75 40.1893L34.2803 37.7197C33.9874 37.4268 33.5126 37.4268 33.2197 37.7197C32.9268 38.0126 32.9268 38.4874 33.2197 38.7803L36.2197 41.7803C36.5126 42.0732 36.9874 42.0732 37.2803 41.7803L43.2803 35.7803C43.5732 35.4874 43.5732 35.0126 43.2803 34.7197Z" fill="#201F1E"/>
</svg>
