<svg width="16" height="17" viewBox="0 0 16 17" fill="none" xmlns="http://www.w3.org/2000/svg">
<path d="M6 0.999989C6.399 0.999989 6.7889 1.03894 7.16611 1.11323C6.9427 1.39871 6.74689 1.70683 6.58268 2.03357C6.39154 2.01138 6.1971 1.99998 6 1.99998C3.23858 1.99998 1 4.23853 1 6.99992C1 9.76131 3.23858 11.9999 6 11.9999C7.71238 11.9999 9.22371 11.1391 10.1249 9.82658C10.4718 9.91588 10.832 9.97219 11.2019 9.99194C10.8816 10.5476 10.4748 11.0471 10 11.4721V16.5C10 16.6782 9.90512 16.843 9.75096 16.9325C9.59681 17.0219 9.40668 17.0225 9.25193 16.9341L6 15.0759L2.74807 16.9341C2.59332 17.0225 2.40319 17.0219 2.24904 16.9325C2.09488 16.843 2 16.6782 2 16.5V11.4721C0.772501 10.3735 0 8.7769 0 6.99992C0 3.68625 2.68629 0.999989 6 0.999989ZM6 12.9998C4.90714 12.9998 3.88252 12.7077 3 12.1972V15.6384L5.75193 14.0659C5.90565 13.9781 6.09435 13.9781 6.24807 14.0659L9 15.6384V12.1972C8.11748 12.7077 7.09286 12.9998 6 12.9998Z" fill="#212121"/>
<path d="M7.63459 3.92007C8.72254 3.64215 9.36854 2.52325 9.06524 1.44209L8.90905 0.885298C9.16313 0.689997 9.43852 0.5227 9.73094 0.387817L10.0683 0.745793C10.8573 1.58291 12.188 1.58361 12.9778 0.747325L13.3025 0.403528C13.6003 0.544052 13.8801 0.71832 14.1373 0.921606L14.0111 1.3439C13.6818 2.44605 14.3478 3.59817 15.4672 3.86285L15.8162 3.94537C15.8378 4.12711 15.8489 4.3122 15.8489 4.49998C15.8489 4.65598 15.8412 4.81013 15.8263 4.96204L15.3657 5.07969C14.2778 5.3576 13.6318 6.47651 13.9351 7.55766L14.0912 8.11428C13.8372 8.30963 13.5618 8.47698 13.2694 8.6119L12.932 8.25396C12.1431 7.41684 10.8123 7.41614 10.0225 8.25243L9.69751 8.59654C9.39977 8.45606 9.12004 8.28186 8.86285 8.07865L8.98919 7.65585C9.31853 6.5537 8.65254 5.40158 7.53311 5.1369L7.18354 5.05425C7.16198 4.87262 7.15088 4.68764 7.15088 4.49998C7.15088 4.34395 7.15855 4.18978 7.17353 4.03784L7.63459 3.92007ZM12.4999 4.49998C12.4999 3.94769 12.0522 3.49998 11.4999 3.49998C10.9476 3.49998 10.4999 3.94769 10.4999 4.49998C10.4999 5.05226 10.9476 5.49998 11.4999 5.49998C12.0522 5.49998 12.4999 5.05226 12.4999 4.49998Z" fill="#212121"/>
</svg>
