<svg width="24" height="24" viewBox="0 0 24 24" fill="none" xmlns="http://www.w3.org/2000/svg">
<path d="M11.995 3.83001V3.51001C11.995 2.99001 11.5652 2.57001 11.0254 2.57001H0.969597C0.439818 2.57001 0 2.99001 0 3.51001V20.48H23.99V4.78001C23.99 4.26001 23.5602 3.84 23.0204 3.84H11.995V3.83001Z" fill="#FFB84D"/>
<path d="M23.1504 5.18001H1.06958V20.64H23.1504V5.18001Z" fill="white"/>
<path d="M11.6551 7.12L11.2953 8.08H0.969597C0.439818 8.08 0 8.5 0 9.02V21C0 21.52 0.429822 21.94 0.969597 21.94H23.0304C23.5602 21.94 24 21.52 24 21V7.44C24 6.92 23.5702 6.5 23.0304 6.5H12.5648C12.1549 6.5 11.7951 6.75 11.6551 7.12Z" fill="url(#paint0_linear_670_2516)"/>
<defs>
<linearGradient id="paint0_linear_670_2516" x1="12" y1="6.5" x2="12" y2="21.94" gradientUnits="userSpaceOnUse">
<stop stop-color="#FF9900"/>
<stop offset="1" stop-color="#EB8D00"/>
</linearGradient>
</defs>
</svg>
