<svg width="60" height="60" viewBox="0 0 60 60" fill="none" xmlns="http://www.w3.org/2000/svg">
<rect width="60" height="60" rx="3" fill="#C4F5E9"/>
<path d="M20.25 22.5C20.25 20.4289 21.9289 18.75 24 18.75C26.0711 18.75 27.75 20.4289 27.75 22.5C27.75 24.5711 26.0711 26.25 24 26.25C21.9289 26.25 20.25 24.5711 20.25 22.5ZM24 16.5C20.6863 16.5 18 19.1863 18 22.5C18 25.8137 20.6863 28.5 24 28.5C27.3137 28.5 30 25.8137 30 22.5C30 19.1863 27.3137 16.5 24 16.5ZM35.25 24C35.25 22.7574 36.2574 21.75 37.5 21.75C38.7426 21.75 39.75 22.7574 39.75 24C39.75 25.2426 38.7426 26.25 37.5 26.25C36.2574 26.25 35.25 25.2426 35.25 24ZM37.5 19.5C35.0147 19.5 33 21.5147 33 24C33 26.4853 35.0147 28.5 37.5 28.5C39.9853 28.5 42 26.4853 42 24C42 21.5147 39.9853 19.5 37.5 19.5ZM29.625 31.5C30.0767 31.5 30.5077 31.5887 30.9015 31.7498C29.9662 32.1103 29.2118 32.835 28.812 33.75H18.375C17.7537 33.75 17.25 34.2537 17.25 34.875V35.242L17.2507 35.2607C17.2518 35.2834 17.2542 35.3239 17.2598 35.3798C17.271 35.4918 17.2946 35.663 17.3436 35.8733C17.4423 36.296 17.6396 36.8581 18.031 37.4174C18.7715 38.4752 20.3673 39.75 24 39.75C26.11 39.75 27.5328 39.3199 28.5 38.7521V41.2445C27.3128 41.7126 25.834 42 24 42C19.7577 42 17.416 40.4623 16.1877 38.7076C15.5948 37.8606 15.2999 37.0165 15.1525 36.3845C15.0785 36.0675 15.0405 35.7992 15.021 35.6036C15.0112 35.5057 15.0059 35.4254 15.0031 35.3656C15.0018 35.3357 15.001 35.3109 15.0005 35.2915L15.0001 35.2666L15 35.2572L15 35.2533L15 35.2516V34.875C15 33.011 16.511 31.5 18.375 31.5H29.625ZM30 35.25C30 34.0074 31.0074 33 32.25 33H44.25C45.4926 33 46.5 34.0074 46.5 35.25V41.25C46.5 42.4926 45.4926 43.5 44.25 43.5H32.25C31.0074 43.5 30 42.4926 30 41.25V35.25ZM31.5 36V37.5C33.1569 37.5 34.5 36.1569 34.5 34.5H33C33 35.3284 32.3284 36 31.5 36ZM45 37.5V36C44.1716 36 43.5 35.3284 43.5 34.5H42C42 36.1569 43.3431 37.5 45 37.5ZM42 42H43.5C43.5 41.1716 44.1716 40.5 45 40.5V39C43.3431 39 42 40.3431 42 42ZM31.5 39V40.5C32.3284 40.5 33 41.1716 33 42H34.5C34.5 40.3431 33.1569 39 31.5 39ZM38.25 40.875C39.6997 40.875 40.875 39.6997 40.875 38.25C40.875 36.8003 39.6997 35.625 38.25 35.625C36.8003 35.625 35.625 36.8003 35.625 38.25C35.625 39.6997 36.8003 40.875 38.25 40.875Z" fill="#201F1E"/>
</svg>
