<svg width="16" height="13" viewBox="0 0 16 13" fill="none" xmlns="http://www.w3.org/2000/svg">
<path d="M2 0.5C2 0.223858 2.22386 0 2.5 0H15.5C15.7761 0 16 0.223858 16 0.5C16 0.776142 15.7761 1 15.5 1H2.5C2.22386 1 2 0.776142 2 0.5ZM2 12.5C2 12.2239 2.22386 12 2.5 12H15.5C15.7761 12 16 12.2239 16 12.5C16 12.7761 15.7761 13 15.5 13H2.5C2.22386 13 2 12.7761 2 12.5ZM8 8.5C8 8.22386 8.22386 8 8.5 8H15.5C15.7761 8 16 8.22386 16 8.5C16 8.77614 15.7761 9 15.5 9H8.5C8.22386 9 8 8.77614 8 8.5ZM8 4.5C8 4.22386 8.22386 4 8.5 4H15.5C15.7761 4 16 4.22386 16 4.5C16 4.77614 15.7761 5 15.5 5H8.5C8.22386 5 8 4.77614 8 4.5ZM3.5 10C1.567 10 0 8.433 0 6.5C0 4.567 1.567 3 3.5 3C5.433 3 7 4.567 7 6.5C7 8.433 5.433 10 3.5 10ZM4 4.5C4 4.22386 3.77614 4 3.5 4C3.22386 4 3 4.22386 3 4.5V6H1.5C1.22386 6 1 6.22386 1 6.5C1 6.77614 1.22386 7 1.5 7H3V8.5C3 8.77614 3.22386 9 3.5 9C3.77614 9 4 8.77614 4 8.5V7H5.5C5.77614 7 6 6.77614 6 6.5C6 6.22386 5.77614 6 5.5 6H4V4.5Z" fill="#212121"/>
</svg>
