<svg width="60" height="60" viewBox="0 0 60 60" fill="none" xmlns="http://www.w3.org/2000/svg">
<rect width="60" height="60" rx="3" fill="#FFD6FB"/>
<path d="M38.2501 29.9999C42.8064 29.9999 46.5001 33.6936 46.5001 38.2499C46.5001 42.8062 42.8064 46.4999 38.2501 46.4999C33.6937 46.4999 30.0001 42.8062 30.0001 38.2499C30.0001 33.6936 33.6937 29.9999 38.2501 29.9999ZM30.0334 32.9989C29.5884 33.6938 29.2291 34.4489 28.9705 35.2494L18.3804 35.2498C17.7591 35.2498 17.2554 35.7535 17.2554 36.3748V37.7358C17.2554 38.7192 17.6844 39.6538 18.4301 40.2949C20.3172 41.9174 23.1613 42.7515 27.0001 42.7515C27.8983 42.7515 28.7422 42.7058 29.5323 42.6151C29.9056 43.3653 30.3763 44.0609 30.9257 44.6856C29.7224 44.8968 28.413 45.0015 27.0001 45.0015C22.6658 45.0015 19.3076 44.0166 16.9633 42.0011C15.7204 40.9325 15.0054 39.3749 15.0054 37.7358V36.3748C15.0054 34.5108 16.5164 32.9998 18.3804 32.9998L30.0334 32.9989ZM37.0789 33.8828L36.975 33.9696L33.2016 37.744L33.1406 37.82L33.0886 37.9061L33.0402 38.0231L33.0229 38.0879L33.006 38.2175L33.0118 38.3487L33.0402 38.4764L33.0882 38.5929L33.1251 38.6566L33.2014 38.7556L36.975 42.5302C37.2679 42.8231 37.7428 42.8231 38.0357 42.5302C38.296 42.2699 38.325 41.8657 38.1225 41.5734L38.0357 41.4696L35.5666 38.9999H42.7501C43.1182 38.9999 43.4245 38.7346 43.488 38.3847L43.5001 38.2499C43.5001 37.8817 43.2347 37.5755 42.8849 37.512L42.7501 37.4999H35.5666L38.0357 35.0302C38.296 34.7699 38.325 34.3657 38.1225 34.0734L38.0357 33.9696C37.7753 33.7092 37.3712 33.6803 37.0789 33.8828ZM27.0001 15.0068C31.1422 15.0068 34.5001 18.3647 34.5001 22.5068C34.5001 26.649 31.1422 30.0068 27.0001 30.0068C22.8579 30.0068 19.5001 26.649 19.5001 22.5068C19.5001 18.3647 22.8579 15.0068 27.0001 15.0068ZM27.0001 17.2568C24.1006 17.2568 21.7501 19.6073 21.7501 22.5068C21.7501 25.4063 24.1006 27.7568 27.0001 27.7568C29.8996 27.7568 32.2501 25.4063 32.2501 22.5068C32.2501 19.6073 29.8996 17.2568 27.0001 17.2568Z" fill="#201F1E"/>
</svg>
