<svg width="24" height="24" viewBox="0 0 24 24" fill="none" xmlns="http://www.w3.org/2000/svg">
<path d="M21 18H1C0.45 18 0 17.55 0 17V1C0 0.45 0.45 0 1 0H21C21.55 0 22 0.45 22 1V17C22 17.55 21.55 18 21 18Z" fill="url(#paint0_linear_670_2540)"/>
<g opacity="0.6">
<path d="M5 3H3V5H5V3Z" fill="white"/>
</g>
<g opacity="0.6">
<path d="M19 3H7V5H19V3Z" fill="white"/>
</g>
<g opacity="0.85">
<path d="M5 7H3V9H5V7Z" fill="white"/>
</g>
<g opacity="0.85">
<path d="M19 7H7V9H19V7Z" fill="white"/>
</g>
<g opacity="0.6">
<path d="M5 11H3V13H5V11Z" fill="white"/>
</g>
<g opacity="0.6">
<path d="M19 11H7V13H19V11Z" fill="white"/>
</g>
<path d="M17 24C20.866 24 24 20.866 24 17C24 13.134 20.866 10 17 10C13.134 10 10 13.134 10 17C10 20.866 13.134 24 17 24Z" fill="url(#paint1_linear_670_2540)" fill-opacity="0.8"/>
<path d="M13.8172 15.5837L12.403 16.9979L15.9385 20.5334L17.3527 19.1192L13.8172 15.5837Z" fill="white"/>
<path d="M21.5963 14.8769L20.1821 13.4627L14.5253 19.1195L15.9395 20.5337L21.5963 14.8769Z" fill="white"/>
<defs>
<linearGradient id="paint0_linear_670_2540" x1="11" y1="0" x2="11" y2="18" gradientUnits="userSpaceOnUse">
<stop stop-color="#CC0074"/>
<stop offset="1" stop-color="#990057"/>
</linearGradient>
<linearGradient id="paint1_linear_670_2540" x1="17" y1="10" x2="17" y2="24" gradientUnits="userSpaceOnUse">
<stop stop-color="#FF0090"/>
<stop offset="1" stop-color="#CC0074"/>
</linearGradient>
</defs>
</svg>
