<svg width="24" height="24" viewBox="0 0 24 24" fill="none" xmlns="http://www.w3.org/2000/svg">
<path d="M4.5 6C5.88071 6 7 4.88071 7 3.5C7 2.11929 5.88071 1 4.5 1C3.11929 1 2 2.11929 2 3.5C2 4.88071 3.11929 6 4.5 6Z" fill="#E52ED3"/>
<path d="M9 14H0V10C0 8.34 1.34 7 3 7H6C7.66 7 9 8.34 9 10V14Z" fill="url(#paint0_linear_670_2562)"/>
<path d="M19.5 6C20.8807 6 22 4.88071 22 3.5C22 2.11929 20.8807 1 19.5 1C18.1193 1 17 2.11929 17 3.5C17 4.88071 18.1193 6 19.5 6Z" fill="#E52ED3"/>
<path d="M24 14H15V10C15 8.34 16.34 7 18 7H21C22.66 7 24 8.34 24 10V14Z" fill="url(#paint1_linear_670_2562)"/>
<path d="M12 6C13.6569 6 15 4.65685 15 3C15 1.34315 13.6569 0 12 0C10.3431 0 9 1.34315 9 3C9 4.65685 10.3431 6 12 6Z" fill="#CC00B8"/>
<path d="M17 14H7V9.5C7 7.84 8.34 6.5 10 6.5H14C15.66 6.5 17 7.84 17 9.5V14Z" fill="url(#paint2_linear_670_2562)"/>
<path d="M20.35 16.47C20.64 15.92 20.89 15.36 21.07 14.75L24 14H0L2.93 14.75C3.11 15.35 3.36 15.92 3.65 16.47L2.34 18.86C2.29 18.95 2.3 19.07 2.36 19.16C2.71 19.63 3.09 20.07 3.51 20.49C3.93 20.91 4.38 21.3 4.84 21.64C4.93 21.7 5.04 21.71 5.14 21.66L7.53 20.35C8.08 20.64 8.64 20.89 9.25 21.07L10.01 23.68C10.04 23.78 10.14 23.86 10.25 23.87C10.82 23.95 11.4 24 12 24C12.6 24 13.18 23.95 13.75 23.87C13.86 23.86 13.95 23.78 13.99 23.68L14.75 21.07C15.35 20.89 15.92 20.64 16.47 20.35L18.86 21.66C18.95 21.71 19.07 21.7 19.16 21.64C19.63 21.29 20.07 20.91 20.49 20.49C20.91 20.07 21.3 19.62 21.64 19.16C21.7 19.07 21.71 18.96 21.66 18.86L20.35 16.47Z" fill="url(#paint3_linear_670_2562)"/>
<path d="M6.34998 14C7.17998 16.33 9.38998 18 12 18C14.61 18 16.82 16.33 17.65 14H6.34998Z" fill="url(#paint4_linear_670_2562)"/>
<defs>
<linearGradient id="paint0_linear_670_2562" x1="4.5" y1="7" x2="4.5" y2="14" gradientUnits="userSpaceOnUse">
<stop stop-color="#E52ED3"/>
<stop offset="1" stop-color="#D119BF"/>
</linearGradient>
<linearGradient id="paint1_linear_670_2562" x1="19.5" y1="7" x2="19.5" y2="14" gradientUnits="userSpaceOnUse">
<stop stop-color="#E52ED3"/>
<stop offset="1" stop-color="#D119BF"/>
</linearGradient>
<linearGradient id="paint2_linear_670_2562" x1="12" y1="6.5" x2="12" y2="14" gradientUnits="userSpaceOnUse">
<stop stop-color="#CC00B8"/>
<stop offset="1" stop-color="#B800A5"/>
</linearGradient>
<linearGradient id="paint3_linear_670_2562" x1="12" y1="14" x2="12" y2="24" gradientUnits="userSpaceOnUse">
<stop stop-color="#524852"/>
<stop offset="1" stop-color="#3D363C"/>
</linearGradient>
<linearGradient id="paint4_linear_670_2562" x1="12" y1="14" x2="12" y2="18" gradientUnits="userSpaceOnUse">
<stop stop-color="#524850"/>
<stop offset="1" stop-color="#141014"/>
</linearGradient>
</defs>
</svg>
