<svg width="12" height="14" viewBox="0 0 12 14" fill="none" xmlns="http://www.w3.org/2000/svg">
<path d="M6.03494 13.0762C6.24411 13.597 6.83006 14.1565 7.5806 13.9479C8.1709 13.7839 8.55437 13.4269 8.77353 12.9514C8.97781 12.5082 9.02797 11.9866 9.03753 11.4894C9.04781 10.9547 8.93612 10.3131 8.80466 9.752C8.74339 9.49045 8.67586 9.23834 8.60995 9.01171H9.99492C11.3298 9.01171 12.29 7.72901 11.9139 6.44825L10.5497 1.80218C10.1555 0.459801 8.73654 -0.297848 7.40179 0.121406L2.04591 1.80372C1.45891 1.9881 0.989444 2.4324 0.773038 3.00836L0.253045 4.39231C-0.0885815 5.30154 0.272443 6.32478 1.109 6.81832L2.98089 7.92267C2.98462 7.92528 2.99002 7.92914 2.99704 7.93431C3.01761 7.94947 3.05204 7.9759 3.09835 8.01516C3.19093 8.09366 3.33128 8.22372 3.5035 8.41797C3.84755 8.80604 4.32141 9.45326 4.79565 10.4625C5.00052 10.8985 5.17287 11.2412 5.32941 11.5524C5.58243 12.0556 5.79411 12.4765 6.03494 13.0762ZM3.51946 7.07982C3.51378 7.07617 3.50805 7.07262 3.50224 7.06919L1.61713 5.95704C1.19885 5.71027 1.01834 5.19865 1.18915 4.74403L1.70914 3.36008C1.81735 3.0721 2.05208 2.84995 2.34558 2.75776L7.70146 1.07545C8.50231 0.823896 9.35371 1.27849 9.5902 2.08391L10.9544 6.72998C11.1424 7.37036 10.6623 8.01171 9.99492 8.01171H7.92587C7.76349 8.01171 7.61122 8.09057 7.51751 8.2232C7.42381 8.35582 7.40035 8.52569 7.4546 8.67875C7.55458 8.96082 7.70672 9.44953 7.83103 9.98011C7.95711 10.5183 8.04556 11.0624 8.03771 11.4702C8.02871 11.9385 7.97907 12.2862 7.86536 12.5328C7.76654 12.7472 7.61384 12.9008 7.31282 12.9844C7.26971 12.9964 7.21948 12.9929 7.15353 12.9496C7.08149 12.9023 7.00781 12.8153 6.96291 12.7035C6.70922 12.0718 6.46651 11.5879 6.19787 11.0524C6.04311 10.7439 5.87974 10.4182 5.7007 10.0372C5.18681 8.94357 4.66067 8.21579 4.25176 7.75457C4.04749 7.52417 3.87312 7.36101 3.74509 7.25245C3.68109 7.19819 3.62875 7.15763 3.59013 7.12918C3.57082 7.11495 3.55495 7.10376 3.54277 7.0954L3.5273 7.08495L3.52171 7.08128L3.51946 7.07982ZM2.97612 7.91933L2.97492 7.91854L2.97612 7.91933Z" fill="white"/>
</svg>
