<svg width="12" height="14" viewBox="0 0 12 14" fill="none" xmlns="http://www.w3.org/2000/svg">
<path d="M6.03494 0.92381C6.24411 0.40297 6.83006 -0.156512 7.5806 0.0520863C8.1709 0.216148 8.55437 0.573072 8.77353 1.04855C8.97781 1.49175 9.02797 2.01342 9.03753 2.51057C9.04781 3.04533 8.93612 3.6869 8.80466 4.248C8.74339 4.50955 8.67586 4.76166 8.60995 4.98829H9.99492C11.3298 4.98829 12.29 6.27099 11.9139 7.55175L10.5497 12.1978C10.1555 13.5402 8.73654 14.2978 7.40179 13.8786L2.04591 12.1963C1.45891 12.0119 0.989444 11.5676 0.773038 10.9916L0.253045 9.60769C-0.0885815 8.69846 0.272443 7.67522 1.109 7.18168L2.98089 6.07733C2.98462 6.07472 2.99002 6.07086 2.99704 6.06569C3.01761 6.05053 3.05204 6.0241 3.09835 5.98484C3.19093 5.90634 3.33128 5.77628 3.5035 5.58203C3.84755 5.19396 4.32141 4.54674 4.79565 3.53753C5.00052 3.10154 5.17287 2.75882 5.32941 2.44756C5.58243 1.94444 5.79411 1.52352 6.03494 0.92381ZM3.51946 6.92018C3.51378 6.92383 3.50805 6.92738 3.50224 6.93081L1.61713 8.04296C1.19885 8.28973 1.01834 8.80135 1.18915 9.25597L1.70914 10.6399C1.81735 10.9279 2.05208 11.1501 2.34558 11.2422L7.70146 12.9246C8.50231 13.1761 9.35371 12.7215 9.5902 11.9161L10.9544 7.27002C11.1424 6.62964 10.6623 5.98829 9.99492 5.98829H7.92587C7.76349 5.98829 7.61122 5.90943 7.51751 5.7768C7.42381 5.64418 7.40035 5.47431 7.4546 5.32125C7.55458 5.03918 7.70672 4.55047 7.83103 4.01989C7.95711 3.48174 8.04556 2.93758 8.03771 2.52979C8.02871 2.06148 7.97907 1.71384 7.86536 1.46715C7.76654 1.25275 7.61384 1.09923 7.31282 1.01557C7.26971 1.00359 7.21948 1.00708 7.15353 1.05038C7.08149 1.09767 7.00781 1.18466 6.96291 1.29647C6.70922 1.9282 6.46651 2.41206 6.19787 2.9476C6.04311 3.25613 5.87974 3.58182 5.7007 3.96282C5.18681 5.05643 4.66067 5.78421 4.25176 6.24543C4.04749 6.47583 3.87312 6.63899 3.74509 6.74755C3.68109 6.80181 3.62875 6.84237 3.59013 6.87082C3.57082 6.88505 3.55495 6.89624 3.54277 6.9046L3.5273 6.91505L3.52171 6.91872L3.51946 6.92018ZM2.97612 6.08067L2.97492 6.08146L2.97612 6.08067Z" fill="white"/>
</svg>
