<svg width="10" height="10" viewBox="0 0 10 10" fill="none" xmlns="http://www.w3.org/2000/svg">
<path d="M5.00004 4.99967C4.35837 4.99967 3.80907 4.7712 3.35212 4.31426C2.89518 3.85731 2.66671 3.30801 2.66671 2.66634C2.66671 2.02467 2.89518 1.47537 3.35212 1.01842C3.80907 0.56148 4.35837 0.333008 5.00004 0.333008C5.64171 0.333008 6.19101 0.56148 6.64796 1.01842C7.1049 1.47537 7.33337 2.02467 7.33337 2.66634C7.33337 3.30801 7.1049 3.85731 6.64796 4.31426C6.19101 4.7712 5.64171 4.99967 5.00004 4.99967ZM8.50004 9.66634H1.50004C1.17921 9.66634 0.904652 9.5522 0.676374 9.32392C0.447707 9.09526 0.333374 8.82051 0.333374 8.49967V8.03301C0.333374 7.70245 0.418541 7.39854 0.588874 7.12126C0.758819 6.84437 0.984763 6.63301 1.26671 6.48717C1.86949 6.18579 2.48199 5.95965 3.10421 5.80876C3.72643 5.65826 4.35837 5.58301 5.00004 5.58301C5.64171 5.58301 6.27365 5.65826 6.89587 5.80876C7.5181 5.95965 8.1306 6.18579 8.73337 6.48717C9.01532 6.63301 9.24126 6.84437 9.41121 7.12126C9.58154 7.39854 9.66671 7.70245 9.66671 8.03301V8.49967C9.66671 8.82051 9.55257 9.09526 9.32429 9.32392C9.09562 9.5522 8.82087 9.66634 8.50004 9.66634ZM1.50004 8.49967H8.50004V8.03301C8.50004 7.92606 8.4734 7.82884 8.42012 7.74134C8.36646 7.65384 8.29587 7.58579 8.20837 7.53717C7.68337 7.27467 7.15351 7.0777 6.61879 6.94626C6.08407 6.8152 5.54449 6.74967 5.00004 6.74967C4.4556 6.74967 3.91601 6.8152 3.38129 6.94626C2.84657 7.0777 2.31671 7.27467 1.79171 7.53717C1.70421 7.58579 1.63382 7.65384 1.58054 7.74134C1.52687 7.82884 1.50004 7.92606 1.50004 8.03301V8.49967ZM5.00004 3.83301C5.32087 3.83301 5.59562 3.71867 5.82429 3.49001C6.05257 3.26173 6.16671 2.98717 6.16671 2.66634C6.16671 2.34551 6.05257 2.07095 5.82429 1.84267C5.59562 1.61401 5.32087 1.49967 5.00004 1.49967C4.67921 1.49967 4.40465 1.61401 4.17637 1.84267C3.94771 2.07095 3.83337 2.34551 3.83337 2.66634C3.83337 2.98717 3.94771 3.26173 4.17637 3.49001C4.40465 3.71867 4.67921 3.83301 5.00004 3.83301Z" fill="black"/>
</svg>
